<svg width="1200" height="800" viewBox="0 0 1200 800" fill="none" xmlns="http://www.w3.org/2000/svg">
  <rect width="1200" height="800" rx="40" fill="#0B1220"/>
  <circle cx="260" cy="240" r="190" fill="#22C55E" fill-opacity="0.18"/>
  <circle cx="920" cy="220" r="220" fill="#3B82F6" fill-opacity="0.18"/>
  <circle cx="760" cy="620" r="260" fill="#A855F7" fill-opacity="0.18"/>

  <rect x="190" y="190" width="820" height="480" rx="28" fill="#111B2E" stroke="#24314F"/>

  <rect x="240" y="250" width="720" height="72" rx="16" fill="#0B1220" stroke="#24314F"/>
  <rect x="260" y="275" width="260" height="20" rx="10" fill="#E5E7EB" fill-opacity="0.9"/>
  <rect x="820" y="270" width="120" height="28" rx="14" fill="#3B82F6" fill-opacity="0.85"/>

  <rect x="240" y="350" width="720" height="86" rx="16" fill="#0B1220" stroke="#24314F"/>
  <rect x="260" y="376" width="340" height="18" rx="9" fill="#E5E7EB" fill-opacity="0.88"/>
  <rect x="740" y="370" width="90" height="26" rx="13" fill="#22C55E" fill-opacity="0.75"/>
  <rect x="840" y="370" width="90" height="26" rx="13" fill="#F59E0B" fill-opacity="0.75"/>

  <rect x="240" y="458" width="720" height="86" rx="16" fill="#0B1220" stroke="#24314F"/>
  <rect x="260" y="484" width="300" height="18" rx="9" fill="#E5E7EB" fill-opacity="0.88"/>
  <rect x="740" y="478" width="90" height="26" rx="13" fill="#3B82F6" fill-opacity="0.75"/>
  <rect x="840" y="478" width="90" height="26" rx="13" fill="#EF4444" fill-opacity="0.75"/>

  <rect x="240" y="566" width="720" height="86" rx="16" fill="#0B1220" stroke="#24314F"/>
  <rect x="260" y="592" width="380" height="18" rx="9" fill="#E5E7EB" fill-opacity="0.88"/>
  <rect x="740" y="586" width="90" height="26" rx="13" fill="#22C55E" fill-opacity="0.75"/>
  <rect x="840" y="586" width="90" height="26" rx="13" fill="#22C55E" fill-opacity="0.75"/>
</svg>
